<svg width="95" height="74" viewBox="0 0 95 74" fill="none" xmlns="http://www.w3.org/2000/svg">
<path d="M34.5833 7.07335H1M19.0833 63.9066H1M11.3333 38.0733H1M77.0916 53.8316L81.6475 65.6757C83.4951 70.4802 77.9487 74.7365 73.7859 71.7088L63.9114 64.5271C60.288 61.8916 55.3786 61.8916 51.7553 64.5271L41.8807 71.7088C37.718 74.7365 32.1716 70.4802 34.0194 65.6757L38.5751 53.8316C40.2543 49.4658 38.7911 44.5156 35.0073 41.7649L24.1861 33.8966C20.1388 30.9536 22.2205 24.551 27.2246 24.551H39.0411C43.5511 24.551 47.5398 21.6266 48.896 17.3259L52.9059 4.61257C54.4254 -0.204214 61.2413 -0.204163 62.7608 4.61257L66.7706 17.3259C68.1269 21.6266 72.1155 24.551 76.6255 24.551H88.4422C93.4461 24.551 95.5278 30.9536 91.4807 33.8966L80.6591 41.7649C76.8756 44.5156 75.4124 49.4658 77.0916 53.8316Z" stroke="white" stroke-width="1.25" stroke-linecap="round"/>
</svg>
